HIERARCHY
ROOT Hips
{
	OFFSET 0.000000 0.000000 0.000000
	CHANNELS 6 Xposition Yposition Zposition Zrotation Yrotation Xrotation 
	JOINT LHipJoint
	{
		OFFSET 0.000000 0.000000 0.000000
		CHANNELS 3 Zrotation Yrotation Xrotation
		JOINT LeftUpLeg
		{
			OFFSET 1.363060 -1.794630 0.839290
			CHANNELS 3 Zrotation Yrotation Xrotation
			JOINT LeftLeg
			{
				OFFSET 2.448110 -6.726130 0.000000
				CHANNELS 3 Zrotation Yrotation Xrotation
				JOINT LeftFoot
				{
					OFFSET 2.562200 -7.039590 0.000000
					CHANNELS 3 Zrotation Yrotation Xrotation
					JOINT LeftToeBase
					{
						OFFSET 0.157640 -0.433110 2.322550
						CHANNELS 3 Zrotation Yrotation Xrotation
						End Site
						{
							OFFSET 0.000000 0.000000 0.000000
						}
					}
				}
			}
		}
	}
	JOINT RHipJoint
	{
		OFFSET 0.000000 0.000000 0.000000
		CHANNELS 3 Zrotation Yrotation Xrotation
		JOINT RightUpLeg
		{
			OFFSET -1.305520 -1.794630 0.839290
			CHANNELS 3 Zrotation Yrotation Xrotation
			JOINT RightLeg
			{
				OFFSET -2.542530 -6.985550 0.000000
				CHANNELS 3 Zrotation Yrotation Xrotation
				JOINT RightFoot
				{
					OFFSET -2.568260 -7.056230 0.000000
					CHANNELS 3 Zrotation Yrotation Xrotation
					JOINT RightToeBase
					{
						OFFSET -0.164730 -0.452590 2.363150
						CHANNELS 3 Zrotation Yrotation Xrotation
						End Site
						{
							OFFSET 0.000000 0.000000 0.000000
						}
					}
				}
			}
		}
	}
}
MOTION
Frames: 28
Frame Time: 0.008333
3.323918 17.195931 0.907373 171.361526 -85.851255 -160.054514 -11.552377 2.039815 1.056684 -4.721403 17.062489 -14.592708 -2.651930 -1.288231 -3.731913 0.376225 3.606052 3.479372 0.871900 0.000000 -36.804000 9.443603 -1.639213 2.577421 2.188331 -3.390372 -11.649561 2.148767 1.467336 0.311671 -0.114548 -5.828515 -1.964672 -2.101000 0.000000 -43.466300
3.327331 17.196510 0.905780 169.876024 -86.173830 -158.574286 -11.546218 2.024901 1.093531 -4.740243 16.838791 -14.601768 -2.648698 -1.300949 -3.759754 0.365096 3.558770 3.549510 0.872100 -0.000000 -36.789399 9.449288 -1.663957 2.569188 2.173181 -3.486106 -11.622987 2.131790 1.458192 0.317857 -0.130352 -6.010952 -2.012246 -2.142000 -0.000000 -43.429100
3.330855 17.197054 0.904204 168.235784 -86.486325 -156.944183 -11.537859 2.009313 1.128213 -4.758193 16.636320 -14.607454 -2.646856 -1.315464 -3.791801 0.353158 3.509882 3.621955 0.872200 0.000000 -36.776100 9.457490 -1.693237 2.568279 2.158656 -3.569632 -11.591704 2.115419 1.449357 0.308383 -0.147723 -6.186363 -2.049900 -2.179900 0.000001 -43.388900
3.334433 17.197582 0.902670 166.474759 -86.784287 -155.198244 -11.526396 1.993681 1.159970 -4.773851 16.459832 -14.608354 -2.646555 -1.331487 -3.827261 0.340379 3.458234 3.695592 0.871900 -0.000000 -36.765000 9.469306 -1.726446 2.573761 2.146272 -3.644051 -11.555830 2.100184 1.440743 0.285669 -0.166121 -6.349168 -2.077773 -2.213600 -0.000000 -43.348100
3.338295 17.198110 0.901217 164.647426 -87.063227 -153.394372 -11.511186 1.978684 1.187789 -4.785471 16.312865 -14.602033 -2.647620 -1.348331 -3.865202 0.326944 3.403883 3.769783 0.871000 -0.000000 -36.756100 9.485510 -1.762242 2.583814 2.137464 -3.712456 -11.514974 2.086555 1.432155 0.253164 -0.184716 -6.493781 -2.095476 -2.242100 -0.000000 -43.307600
3.342454 17.198587 0.899862 162.792049 -87.319587 -151.570901 -11.491613 1.964985 1.212050 -4.793090 16.190534 -14.584440 -2.649340 -1.365848 -3.909772 0.313781 3.354453 3.845507 0.871000 0.000001 -36.749600 9.506802 -1.799242 2.596871 2.131165 -3.777310 -11.469915 2.074670 1.423493 0.213406 -0.202686 -6.616164 -2.104165 -2.264600 -0.000000 -43.270000
3.346999 17.199046 0.898581 160.990617 -87.549677 -149.810885 -11.468070 1.953325 1.231808 -4.796211 16.095676 -14.554895 -2.651669 -1.383160 -3.958908 0.301019 3.308706 3.921301 0.871400 0.000000 -36.745100 9.532900 -1.835848 2.610933 2.127662 -3.840472 -11.420260 2.064710 1.414717 0.170571 -0.219153 -6.713675 -2.104556 -2.280700 0.000001 -43.236400
3.352022 17.199485 0.897357 159.284533 -87.751346 -148.155832 -11.440897 1.944055 1.247487 -4.795015 16.019596 -14.507901 -2.653545 -1.400015 -4.017476 0.289812 3.276497 3.999166 0.874100 -0.000000 -36.741700 9.563578 -1.870524 2.623766 2.124563 -3.904121 -11.366030 2.056523 1.405567 0.127619 -0.233686 -6.784274 -2.097850 -2.290500 -0.000000 -43.208400
3.357596 17.199904 0.896200 157.785408 -87.922447 -146.717151 -11.412070 1.937287 1.256564 -4.791054 15.976291 -14.453038 -2.656323 -1.414918 -4.072057 0.278910 3.242445 4.073484 0.875700 0.000000 -36.739000 9.596823 -1.902212 2.634753 2.122665 -3.965966 -11.308354 2.050044 1.396248 0.088951 -0.245439 -6.830438 -2.085293 -2.295000 -0.000000 -43.185500
3.363745 17.200350 0.895040 156.494600 -88.063646 -145.494445 -11.382138 1.932658 1.260078 -4.784993 15.950792 -14.383431 -2.658543 -1.428138 -4.130245 0.269797 3.220809 4.147596 0.879200 0.000000 -36.735600 9.632088 -1.930011 2.642052 2.118696 -4.026703 -11.247584 2.044798 1.386298 0.056434 -0.254303 -6.852795 -2.068702 -2.294701 0.000000 -43.169300
3.370587 17.200804 0.893819 155.445439 -88.175559 -144.520399 -11.352340 1.929346 1.256812 -4.779074 15.947174 -14.306705 -2.660842 -1.439050 -4.183772 0.261956 3.205192 4.218399 0.883100 0.000000 -36.730699 9.667940 -1.953533 2.645680 2.111792 -4.083586 -11.185965 2.040335 1.375629 0.032212 -0.260357 -6.855838 -2.049109 -2.290700 -0.000001 -43.158800
3.378101 17.201330 0.892528 154.642402 -88.260230 -143.796958 -11.323383 1.926553 1.246569 -4.774109 15.960208 -14.223519 -2.662895 -1.447608 -4.231688 0.255681 3.198148 4.285658 0.887901 0.000000 -36.722701 9.703541 -1.972542 2.645128 2.100498 -4.134537 -11.124461 2.036218 1.364023 0.017066 -0.263723 -6.842789 -2.027921 -2.284200 -0.000000 -43.154800
3.386248 17.201856 0.891046 153.998315 -88.320318 -143.235442 -11.294224 1.923450 1.230637 -4.769990 15.968865 -14.122022 -2.662778 -1.454658 -4.286347 0.252805 3.219400 4.354910 0.898000 -0.000000 -36.709100 9.740072 -1.986448 2.637800 2.080773 -4.183156 -11.061552 2.031905 1.350539 0.011266 -0.264669 -6.812807 -2.005536 -2.274400 -0.000000 -43.157200
3.394933 17.202485 0.889415 153.589664 -88.357196 -142.907250 -11.266761 1.919155 1.206979 -4.769411 15.994123 -14.025948 -2.663081 -1.459154 -4.325098 0.251010 3.243757 4.416584 0.907800 0.000000 -36.690500 9.774977 -1.996175 2.627539 2.056525 -4.219912 -11.003401 2.027298 1.336241 0.013343 -0.263871 -6.775080 -1.982080 -2.264100 0.000000 -43.163000
3.404194 17.203199 0.887653 153.364583 -88.373281 -142.759413 -11.240365 1.912845 1.176550 -4.771896 16.022195 -13.929598 -2.662548 -1.461716 -4.355540 0.251470 3.283743 4.473672 0.920099 -0.000000 -36.665300 9.808785 -2.001469 2.613014 2.026248 -4.246120 -10.949509 2.022165 1.320745 0.021656 -0.261522 -6.729698 -1.956983 -2.252901 -0.000000 -43.171899
3.413783 17.203999 0.885749 153.319142 -88.370048 -142.783413 -11.215218 1.903997 1.139401 -4.777838 16.052800 -13.837381 -2.661436 -1.462489 -4.374856 0.254015 3.337660 4.524689 0.934400 0.000000 -36.633000 9.841110 -2.002740 2.595087 1.990661 -4.259769 -10.901714 2.016527 1.304402 0.033398 -0.258363 -6.678554 -1.929504 -2.241000 -0.000000 -43.182101
3.423721 17.204904 0.883744 153.449203 -88.348688 -142.973954 -11.191505 1.891964 1.095587 -4.787166 16.085066 -13.752538 -2.659776 -1.461612 -4.381673 0.258623 3.405209 4.568543 0.950900 0.000000 -36.592900 9.871526 -2.000241 2.574127 1.950817 -4.260080 -10.861179 2.010520 1.287469 0.045613 -0.254742 -6.622307 -1.898004 -2.228400 0.000000 -43.192100
3.433806 17.205922 0.881711 153.784418 -88.310070 -143.356147 -11.169957 1.876249 1.045436 -4.799745 16.122310 -13.683147 -2.658114 -1.459271 -4.372038 0.264857 3.481776 4.602816 0.968300 0.000001 -36.546100 9.898890 -1.994802 2.552043 1.909623 -4.243692 -10.831176 2.004456 1.270721 0.054165 -0.251375 -6.563310 -1.860870 -2.215600 0.000000 -43.199901
3.443944 17.207031 0.879636 154.245475 -88.254614 -143.851844 -11.149305 1.856685 0.988902 -4.815188 16.154969 -13.617442 -2.655472 -1.456111 -4.356622 0.273588 3.577771 4.631861 0.989200 -0.000000 -36.490500 9.924970 -1.985924 2.525999 1.864136 -4.218326 -10.807518 1.998569 1.253647 0.056489 -0.248159 -6.494050 -1.816764 -2.199900 0.000000 -43.205500
3.453926 17.208266 0.877615 154.905842 -88.182967 -144.528512 -11.131174 1.832781 0.926349 -4.833189 16.193913 -13.571707 -2.653163 -1.452155 -4.325647 0.283670 3.680946 4.650832 1.010700 -0.000000 -36.429300 9.947424 -1.975180 2.499970 1.820066 -4.176558 -10.796769 1.993320 1.237520 0.048436 -0.245693 -6.420053 -1.763739 -2.183000 0.000000 -43.206800
3.463724 17.209595 0.875702 155.740354 -88.095765 -145.360808 -11.115390 1.804167 0.857714 -4.853144 16.238406 -13.545274 -2.651145 -1.447797 -4.281899 0.295058 3.791842 4.660861 1.033100 -0.000000 -36.362800 9.966413 -1.962871 2.473712 1.778510 -4.120289 -10.799515 1.989034 1.222472 0.027547 -0.244235 -6.339570 -1.700528 -2.164100 0.000000 -43.203600
3.473048 17.211022 0.873852 156.678810 -87.993140 -146.276363 -11.100777 1.770910 0.782802 -4.876215 16.285715 -13.533276 -2.649408 -1.443692 -4.231900 0.307864 3.913418 4.664737 1.057400 0.000000 -36.290400 9.983539 -1.948944 2.446065 1.737350 -4.054954 -10.814721 1.986014 1.208426 -0.008943 -0.243640 -6.246462 -1.626248 -2.141300 0.000000 -43.195700
3.481893 17.212571 0.872111 157.739080 -87.876651 -147.291221 -11.088031 1.732510 0.701709 -4.901140 16.340540 -13.543435 -2.648501 -1.440023 -4.172257 0.321422 4.039360 4.661207 1.082000 0.000000 -36.214999 9.997673 -1.934340 2.418767 1.700774 -3.976963 -10.847001 1.984491 1.195810 -0.061078 -0.244013 -6.144822 -1.540833 -2.115800 0.000000 -43.183600
3.490029 17.214215 0.870445 158.868768 -87.747679 -148.350551 -11.076519 1.689110 0.614162 -4.927923 16.401407 -13.573047 -2.648487 -1.437250 -4.107310 0.335603 4.169971 4.652909 1.107300 -0.000000 -36.137600 10.009757 -1.919170 2.390808 1.668455 -3.889704 -10.896467 1.984592 1.184442 -0.127962 -0.244993 -6.032709 -1.444942 -2.087200 -0.000000 -43.168600
3.497403 17.216002 0.868769 160.012070 -87.608098 -149.397435 -11.065153 1.640583 0.520105 -4.958802 16.467715 -13.623848 -2.649776 -1.435840 -4.039183 0.350151 4.304125 4.641179 1.133300 -0.000000 -36.057700 10.020932 -1.903309 2.362234 1.639384 -3.795159 -10.965918 1.986310 1.174389 -0.210383 -0.246420 -5.909241 -1.339141 -2.055100 -0.000000 -43.150800
3.503879 17.217905 0.867010 161.133111 -87.460318 -150.393334 -11.053244 1.586999 0.420063 -4.994935 16.538562 -13.699492 -2.652776 -1.436203 -3.968928 0.364753 4.439917 4.627669 1.159801 0.000000 -35.975800 10.031820 -1.886965 2.333567 1.614075 -3.693991 -11.058979 1.989556 1.165747 -0.307145 -0.248314 -5.776283 -1.224459 -2.020300 -0.000000 -43.130600
3.509358 17.219934 0.865111 162.199959 -87.308790 -151.306819 -11.040565 1.528895 0.313994 -5.034681 16.610257 -13.794229 -2.657169 -1.438393 -3.899933 0.379326 4.577238 4.614383 1.187000 0.000001 -35.893700 10.042944 -1.869853 2.302845 1.592329 -3.589793 -11.174042 1.994124 1.157842 -0.411011 -0.249802 -5.634949 -1.105452 -1.983500 -0.000000 -43.111200
3.513814 17.222104 0.862976 163.176346 -87.157762 -152.103107 -11.026132 1.466819 0.203263 -5.079358 16.679529 -13.908662 -2.663098 -1.442617 -3.833614 0.393658 4.715052 4.603231 1.214800 -0.000000 -35.811500 10.055268 -1.851944 2.270344 1.573472 -3.485439 -11.312703 1.999745 1.150484 -0.519119 -0.250389 -5.486902 -0.984153 -1.945100 0.000000 -43.093400
